<?xml version="1.0" encoding="UTF-8"?>
<svg id="Layer_1" data-name="Layer 1" xmlns="http://www.w3.org/2000/svg" version="1.1" viewBox="0 0 1920 1080">
  <defs>
    <style>
      .cls-1 {
        fill: #0d26b8;
      }

      .cls-1, .cls-2 {
        stroke-width: 0px;
      }

      .cls-2 {
        fill: #00052b;
      }
    </style>
  </defs>
  <path class="cls-1" d="M507.1,871.7v70.2h15.8v-20h13.9c17.8,0,28.1-9.4,28.1-25.8s-10.2-24.4-28.1-24.4h-29.8ZM522.9,884.8h13.1c8.8,0,13.8,3.9,13.8,11.7s-5,12-13.8,12h-13.1v-23.8h0ZM688.6,941.9h17.9l-14.9-23.2c8.5-4,13.1-11.8,13.1-22.6,0-15.5-10.4-24.4-28.8-24.4h-30.5v70.2h15.8v-20h16.1l11.1,20h0ZM661.4,908.6v-23.7h14.6c8.7,0,13.7,3.9,13.7,11.7s-5,12-13.7,12h-14.6ZM842,884.8v-13.1h-53.4v70.2h54.5v-13.1h-38.7v-15.5h33.9v-13.1h-33.9v-15.2h37.6ZM1002.2,941.9v-70.2h-17.6l-20.3,42.9-20.5-42.9h-17.7v70.2h14.3v-47.3l18.6,40.2h10.3l18.6-40.2v47.3h14.2ZM1104.1,941.9v-70.2h-15.8v70.2h15.8ZM1252.1,871.7h-15.8v40.8c0,10.1-6.2,16.2-15.6,16.2s-16-6.1-16-16.2v-40.8h-15.8v40.8c0,18.5,12.4,30.1,31.9,30.1s31.5-11.5,31.5-30.1v-40.8h0ZM1412.9,941.9v-70.2h-17.6l-20.3,42.9-20.4-42.9h-17.7v70.2h14.3v-47.3l18.6,40.2h10.3l18.6-40.2v47.3h14.2Z"/>
  <path class="cls-2" d="M281.1,578.3c-45,0-79.2,32.3-79.2,75.1s33.5,76,77.9,76,44.4-10.4,60.1-26.5l-19.7-21.4c-10.6,10.6-25.2,17.4-38.6,17.4-25.5,0-45.2-19.9-45.2-45.8s19.7-45.6,45.2-45.6,28.4,7.6,38.6,19.3l19.5-23.8c-14.6-15.1-37.1-24.6-58.6-24.6h0ZM452.6,578.3c-45.4,0-79.8,32-79.8,75.3s34.4,75.8,79.8,75.8,79.8-32.9,79.8-75.8c0-43.1-34.4-75.3-79.8-75.3h0ZM453,607.6c24.8,0,45,20,45,46.1s-20.2,46.5-45,46.5-45.8-20.4-45.8-46.5c0-26.1,20.8-46.1,45.8-46.1h0ZM581,579.4v148.6h61.8c46.9,0,79.4-30.6,79.4-74.3s-32-74.3-78.1-74.3h-63ZM614.5,607.6h28.9c25.5,0,44.6,18.9,44.6,46.3s-18.2,45.8-43.1,45.8h-30.3v-92.1h0ZM883.8,607.2v-27.8h-113.1v148.6h115.4v-27.8h-81.9v-32.9h71.7v-27.8h-71.7v-32.3h79.6ZM939,579.4v148.6h33.5v-42.4h29.5c37.8,0,59.4-19.9,59.4-54.5s-21.6-51.6-59.4-51.6h-63ZM972.5,607.2h27.8c18.7,0,29.3,8.3,29.3,24.8s-10.6,25.5-29.3,25.5h-27.8v-50.3h0ZM1240.8,579.4h-33.5v86.4c0,21.4-13.2,34.4-33.1,34.4s-34-12.9-34-34.4v-86.4h-33.5v86.4c0,39.3,26.3,63.7,67.5,63.7s66.6-24.4,66.6-63.7v-86.4h0ZM1330.7,698.7v-119.3h-33.5v148.6h97.2v-29.3h-63.7ZM1495.2,577.9c-34.4,0-57.5,17-57.5,43.9,0,52.6,79.2,36.3,79.2,64.3s-8.3,14.2-22.1,14.2-37.3-8.7-52.6-22.3l-13.4,27.4c16.8,14.2,41.2,23.6,65.6,23.6s58.1-15.7,58.1-44.8c.2-53.5-78.9-38.2-78.9-65.6s7.6-12.1,18.9-12.1,30.6,5.9,46.3,15.3l12.9-27.8c-14.8-9.8-35.6-16.1-56.4-16.1h0ZM1715.7,607.2v-27.8h-113.1v148.6h115.4v-27.8h-81.9v-32.9h71.7v-27.8h-71.7v-32.3h79.6Z"/>
  <path class="cls-1" d="M817,174.4c-8.3,0-13,.7-14.5,2.3-1.8,1.9-2.4,7.2-2.4,16v65.5c0,12.1-4.7,24.1-14.6,33.7,9.9,9.5,14.6,21.6,14.6,33.7v65.5c0,8.9.7,14.1,2.4,16,1.6,1.6,6.2,2.3,14.5,2.3v37c-19,0-32.1-4.1-41.4-14.1-9.1-9.7-12.6-22.9-12.6-41.3v-65.5c0-3.2-1.9-6.6-5.9-9.2h0c-5.3-3.6-13.8-5.9-26.1-5.9v-37c12.2,0,20.7-2.3,26.1-5.9h0c4-2.7,5.9-6.1,5.9-9.3v-65.5c0-18.5,3.4-31.6,12.6-41.3,9.4-9.9,22.4-14.1,41.4-14.1v37h0ZM1074.5,236.5v111.8h-37v-111.8h37ZM1010.5,190.2v204.4h-37v-204.4h37ZM946.5,176.3v232.1h-37v-232.1h37ZM882.5,218v148.8h-37v-148.8h37ZM1103,409.6c8.3,0,13-.7,14.5-2.3,1.8-1.9,2.4-7.2,2.4-16v-65.5c0-12.1,4.7-24.1,14.6-33.7-9.9-9.5-14.6-21.6-14.6-33.7v-65.5c0-8.9-.7-14.1-2.4-16-1.6-1.6-6.2-2.3-14.5-2.3v-37c19,0,32.1,4.1,41.4,14.1,9.1,9.7,12.6,22.9,12.6,41.3v65.5c0,3.2,1.9,6.6,5.9,9.2h0c5.3,3.6,13.8,5.9,26.1,5.9v37c-12.2,0-20.7,2.3-26.1,5.9h0c-4,2.7-5.9,6.1-5.9,9.3v65.5c0,18.5-3.4,31.6-12.6,41.3-9.4,9.9-22.4,14.1-41.4,14.1v-37h0Z"/>
</svg>